<?xml version="1.0" encoding="UTF-8" standalone="no"?>
<!-- Created with Inkscape (http://www.inkscape.org/) -->
<!-- Manually reduced from Amarok's default-theme-clean.svg by
     Michael Pyne <mpyne@kde.org>.
     The original license is the GNU GPL v2 (based on the COPYING file in the
     Amarok source)
 -->

<svg
   xmlns:i="http://ns.adobe.com/AdobeIllustrator/10.0/"
   xmlns:a="http://ns.adobe.com/AdobeSVGViewerExtensions/3.0/"
   xmlns:dc="http://purl.org/dc/elements/1.1/"
   xmlns:cc="http://creativecommons.org/ns#"
   xmlns:rdf="http://www.w3.org/1999/02/22-rdf-syntax-ns#"
   xmlns:svg="http://www.w3.org/2000/svg"
   xmlns="http://www.w3.org/2000/svg"
   xmlns:xlink="http://www.w3.org/1999/xlink"
   xmlns:sodipodi="http://sodipodi.sourceforge.net/DTD/sodipodi-0.dtd"
   xmlns:inkscape="http://www.inkscape.org/namespaces/inkscape"
   width="2551.1226"
   height="1380.9272"
   id="svg6830"
   sodipodi:version="0.32"
   inkscape:version="0.47 r22583"
   version="1.0"
   sodipodi:docname="juk-theme.svg"
   inkscape:output_extension="org.inkscape.output.svg.inkscape">
  <sodipodi:namedview
     id="base"
     pagecolor="#ffffff"
     bordercolor="#666666"
     borderopacity="1.0"
     gridtolerance="10000"
     guidetolerance="10"
     objecttolerance="10"
     inkscape:pageopacity="0.0"
     inkscape:pageshadow="2"
     inkscape:zoom="1.4142136"
     inkscape:cx="2035.649"
     inkscape:cy="223.19126"
     inkscape:document-units="px"
     inkscape:current-layer="PLAYpause"
     showgrid="true"
     inkscape:window-width="1204"
     inkscape:window-height="922"
     inkscape:window-x="180"
     inkscape:window-y="154"
     inkscape:window-maximized="0"
     inkscape:snap-global="true">
    <inkscape:grid
       type="xygrid"
       id="grid11130"
       empspacing="5"
       visible="true"
       enabled="true"
       snapvisiblegridlinesonly="true" />
  </sodipodi:namedview>
  <defs
     id="defs6832">
    <linearGradient
       id="linearGradient5851-1">
      <stop
         id="stop5853-5"
         offset="0"
         style="stop-color:#000000;stop-opacity:0.44705883;" />
      <stop
         style="stop-color:#000000;stop-opacity:0.22134387;"
         offset="0.09"
         id="stop5855-9" />
      <stop
         id="stop5857-8"
         offset="1"
         style="stop-color:#000000;stop-opacity:0.08695652" />
    </linearGradient>
    <linearGradient
       y2="1002.8258"
       x2="-131.98988"
       y1="987.82581"
       x1="-131.98988"
       gradientTransform="translate(25,64.989702)"
       gradientUnits="userSpaceOnUse"
       id="linearGradient11679"
       xlink:href="#linearGradient5851-1"
       inkscape:collect="always" />
    <linearGradient
       y2="1002.8258"
       x2="-131.98988"
       y1="987.82581"
       x1="-131.98988"
       gradientTransform="matrix(-1,0,0,1,-3.97976,64.989744)"
       gradientUnits="userSpaceOnUse"
       id="linearGradient11720"
       xlink:href="#linearGradient5851-1"
       inkscape:collect="always" />
    <linearGradient
       inkscape:collect="always"
       xlink:href="#linearGradient5851-1"
       id="linearGradient11884"
       gradientUnits="userSpaceOnUse"
       gradientTransform="matrix(0.33333333,0,0,0.33333289,-82.993253,750.21083)"
       x1="-86.989883"
       y1="1012.8258"
       x2="-86.989883"
       y2="982.82581" />
    <linearGradient
       inkscape:collect="always"
       xlink:href="#linearGradient5851-1"
       id="linearGradient4559"
       gradientUnits="userSpaceOnUse"
       gradientTransform="matrix(-0.33333333,0,0,0.33333289,95.01349,750.21083)"
       x1="-86.989883"
       y1="1012.8258"
       x2="-86.989883"
       y2="982.82581" />
    <linearGradient
       inkscape:collect="always"
       xlink:href="#linearGradient5851-1"
       id="linearGradient11898"
       x1="730"
       y1="1220.9272"
       x2="730"
       y2="1235.9272"
       gradientUnits="userSpaceOnUse"
       gradientTransform="matrix(23.5,0,0,1,-17144.49,-168.10144)" />
    <linearGradient
       y2="1235.9272"
       x2="730"
       y1="1220.9272"
       x1="730"
       gradientTransform="matrix(23.5,0,0,0.6666667,-17149.49,-1901.7773)"
       gradientUnits="userSpaceOnUse"
       id="linearGradient11921"
       xlink:href="#linearGradient5851-1"
       inkscape:collect="always" />
    <linearGradient
       id="linearGradient6773">
      <stop
         id="stop6775"
         offset="0"
         style="stop-color:#000000;stop-opacity:1;" />
      <stop
         id="stop6777"
         offset="1"
         style="stop-color:#000000;stop-opacity:0;" />
    </linearGradient>
    <radialGradient
       r="19"
       fy="124"
       fx="885"
       cy="124"
       cx="885"
       gradientTransform="matrix(0.999999,2.0609768e-7,-2.0609785e-7,0.9999998,9.2955617e-4,-1.647123e-4)"
       gradientUnits="userSpaceOnUse"
       id="radialGradient8574"
       xlink:href="#linearGradient6773"
       inkscape:collect="always" />
    <linearGradient
       id="linearGradient3958">
      <stop
         id="stop3960"
         offset="0"
         style="stop-color:#ffffff;stop-opacity:1;" />
      <stop
         id="stop3962"
         offset="1"
         style="stop-color:#000000;stop-opacity:1;" />
    </linearGradient>
    <linearGradient
       inkscape:collect="always"
       xlink:href="#linearGradient3958"
       id="linearGradient6743"
       gradientUnits="userSpaceOnUse"
       x1="891.17303"
       y1="143.45389"
       x2="891.17303"
       y2="104.99113" />
    <linearGradient
       inkscape:collect="always"
       xlink:href="#linearGradient3958"
       id="linearGradient6745"
       gradientUnits="userSpaceOnUse"
       gradientTransform="matrix(0.3898039,0,0,0.3898039,-152.99205,-43.476187)"
       x1="904"
       y1="105"
       x2="904"
       y2="186.5" />
    <radialGradient
       inkscape:collect="always"
       xlink:href="#linearGradient9636"
       id="radialGradient9674"
       gradientUnits="userSpaceOnUse"
       gradientTransform="matrix(0.39473645,8.1354347e-8,-8.1354416e-8,0.39473676,565.65826,1269.4798)"
       cx="885"
       cy="124"
       fx="885"
       fy="124"
       r="19" />
    <linearGradient
       id="linearGradient9636">
      <stop
         style="stop-color:#66ffff;stop-opacity:1;"
         offset="0"
         id="stop9638" />
      <stop
         style="stop-color:#66ffff;stop-opacity:0.39215687;"
         offset="1"
         id="stop9640" />
    </linearGradient>
    <linearGradient
       inkscape:collect="always"
       xlink:href="#linearGradient3958"
       id="linearGradient9909"
       gradientUnits="userSpaceOnUse"
       x1="891.17303"
       y1="142.29079"
       x2="891.17303"
       y2="103.73747" />
    <linearGradient
       inkscape:collect="always"
       xlink:href="#linearGradient3958"
       id="linearGradient9911"
       gradientUnits="userSpaceOnUse"
       gradientTransform="matrix(0.3898039,0,0,0.3898039,-152.99205,-43.476187)"
       x1="904"
       y1="110.16653"
       x2="904"
       y2="167.90259" />
  </defs>
  <metadata
     id="metadata6835">
    <rdf:RDF>
      <cc:Work
         rdf:about="">
        <dc:format>image/svg+xml</dc:format>
        <dc:type
           rdf:resource="http://purl.org/dc/dcmitype/StillImage" />
        <dc:title />
      </cc:Work>
    </rdf:RDF>
  </metadata>
  <g
     inkscape:label="Layer 1"
     inkscape:groupmode="layer"
     id="layer1"
     transform="translate(846.98988,218.10144)">

    <path
       style="opacity:0.54000004999999995;fill:url(#linearGradient11679);fill-opacity:1.0;fill-rule:nonzero"
       d="m -116.48988,1052.8258 c -3.047,0 -5.5,2.6455 -5.5,5 l 0,5.75 c 0,2.3545 2.453,4.25 5.5,4.25 l 9.5,0 0,-15 -9.5,0 z"
       id="progress_slider_left"
       sodipodi:nodetypes="ccccccc">
      <title
         id="title11743"
         style="fill-opacity:1.0">progress_slider_left</title>
    </path>
    <path
       style="opacity:0.54000005;fill:url(#linearGradient11720);fill-opacity:1;fill-rule:nonzero"
       d="m 137.51012,1052.8258 c 3.047,0 5.5,1.8955 5.5,4.25 l 0,6.5 c 0,2.3545 -2.453,4.25 -5.5,4.25 l -9.5,0 0,-15 9.5,0 z"
       id="progress_slider_right">
      <title
         id="title11745">progress_slider_right</title>
    </path>
    <path
       style="opacity:0.7;fill:url(#linearGradient11884);fill-opacity:1;fill-rule:nonzero"
       d="m -116.98988,1077.8258 c -2.77,0 -5,2.23 -5,5 0,2.77 2.23,5 5,5 l 5,0 0,-10 -5,0 z m 0,1.6667 c 1.84095,0 3.33333,1.4924 3.33333,3.3333 0,1.8409 -1.49238,3.3333 -3.33333,3.3333 -1.84095,0 -3.33333,-1.4924 -3.33333,-3.3333 0,-1.8409 1.49238,-3.3333 3.33333,-3.3333 z"
       id="progress_slider_played_left">
      <title
         id="title11886"
         style="fill-opacity:1.0">progress_slider_played_left</title>
    </path>
    <path
       id="progress_slider_played_right"
       d="m 129.01012,1077.8258 c 2.77,0 5,2.23 5,5 0,2.77 -2.23,5 -5,5 l -5,0 0,-10 5,0 z m 0,1.6667 c -1.84095,0 -3.33333,1.4924 -3.33333,3.3333 0,1.8409 1.49238,3.3333 3.33333,3.3333 1.84095,0 3.33333,-1.4924 3.33333,-3.3333 0,-1.8409 -1.49238,-3.3333 -3.33333,-3.3333 z"
       style="opacity:0.7;fill:url(#linearGradient4559);fill-opacity:1;fill-rule:nonzero">
      <title
         id="title4557">progress_slider_played_left</title>
    </path>
    <rect
       style="opacity:0.54000005;fill:url(#linearGradient11898);fill-opacity:1;fill-rule:nonzero"
       id="progress_slider_mid"
       width="235"
       height="15"
       x="-106.98988"
       y="1052.8258">
      <title
         id="title11900">progress_slider_mid</title>
    </rect>
    <rect
       style="opacity:0.7;fill:url(#linearGradient11921);fill-opacity:1;fill-rule:nonzero"
       id="progress_slider_played_mid"
       width="235"
       height="10"
       x="-111.98988"
       y="-1087.8258"
       transform="scale(1,-1)">
      <title
         id="title11900-9"
         style="fill-opacity:1.0">progress_slider_played_mid</title>
    </rect>
    <g
       transform="matrix(0.8004071,0,0,0.8004071,-125.86255,1093.7014)"
       id="slider_knob_200911">
      <path
         transform="matrix(0.4931701,0,0,0.4931701,-219.22524,-52.876797)"
         d="m 904,124 c 0,10.49341 -8.50659,19 -19,19 -10.49341,0 -19,-8.50659 -19,-19 0,-10.49341 8.50659,-19 19,-19 10.49341,0 19,8.50659 19,19 z"
         sodipodi:ry="19"
         sodipodi:rx="19"
         sodipodi:cy="124"
         sodipodi:cx="885"
         id="path6791"
         style="opacity:0.75609753;fill:url(#radialGradient8574);fill-opacity:1;stroke:none"
         sodipodi:type="arc" />
      <g
         transform="matrix(1.0120555,0,0,1.0120555,22.919418,3.4559159)"
         id="g6725">
        <path
           sodipodi:type="arc"
           style="fill:#f0f0f0;fill-opacity:1;stroke:none"
           id="path9913"
           sodipodi:cx="885"
           sodipodi:cy="124"
           sodipodi:rx="19"
           sodipodi:ry="19"
           d="m 904,124 c 0,10.49341 -8.50659,19 -19,19 -10.49341,0 -19,-8.50659 -19,-19 0,-10.49341 8.50659,-19 19,-19 10.49341,0 19,8.50659 19,19 z"
           transform="matrix(0.3898039,0,0,0.3898039,-152.99205,-43.476187)" />
        <path
           transform="matrix(0.3898039,0,0,0.3898039,-152.99205,-43.476187)"
           d="m 904,124 c 0,10.49341 -8.50659,19 -19,19 -10.49341,0 -19,-8.50659 -19,-19 0,-10.49341 8.50659,-19 19,-19 10.49341,0 19,8.50659 19,19 z"
           sodipodi:ry="19"
           sodipodi:rx="19"
           sodipodi:cy="124"
           sodipodi:cx="885"
           id="path3538"
           style="opacity:0.25;fill:url(#linearGradient6743);fill-opacity:1;stroke:none"
           sodipodi:type="arc" />
        <path
           id="path8715"
           d="m 191.98562,-2.5499892 c -4.09036,0 -7.40626,3.3159032 -7.40626,7.4062751 0,4.0903732 3.3159,7.4062741 7.40626,7.4062741 4.09038,0 7.40629,-3.3159009 7.40629,-7.4062741 0,-4.0903719 -3.31591,-7.4062751 -7.40629,-7.4062751 z m 0,0.718702 c 3.69676,0 6.68759,2.990829 6.68759,6.6875731 0,3.696743 -2.99083,6.6997561 -6.68759,6.6997561 -3.69673,0 -6.69973,-3.0030131 -6.69973,-6.6997561 0,-3.6967441 3.003,-6.6875731 6.69973,-6.6875731 z"
           style="fill:url(#linearGradient6745);fill-opacity:1;stroke:none" />
      </g>
    </g>
    <g
       transform="matrix(0.8004071,0,0,0.80040708,-152.29776,1098.9362)"
       id="slider_knob_200911_active">
      <path
         style="opacity:0.6;fill:url(#radialGradient9674);fill-opacity:1;stroke:none"
         d="M 915 1310.9375 C 910.85786 1310.9375 907.5 1314.2954 907.5 1318.4375 C 907.5 1322.5796 910.85786 1325.9375 915 1325.9375 C 919.14214 1325.9375 922.5 1322.5796 922.5 1318.4375 C 922.5 1314.2954 919.14214 1310.9375 915 1310.9375 z "
         id="path9228"
         transform="matrix(1.2493642,0,0,1.2493643,-867.92349,-1645.4598)" />
      <g
         id="g9246"
         transform="matrix(1.0120555,0,0,1.0119205,81.027658,-3.1233233)">
        <path
           transform="matrix(0.3898039,0,0,0.3898039,-152.99205,-43.476187)"
           d="m 904,124 c 0,10.49341 -8.50659,19 -19,19 -10.49341,0 -19,-8.50659 -19,-19 0,-10.49341 8.50659,-19 19,-19 10.49341,0 19,8.50659 19,19 z"
           sodipodi:ry="19"
           sodipodi:rx="19"
           sodipodi:cy="124"
           sodipodi:cx="885"
           id="path9907"
           style="fill:#f0f0f0;fill-opacity:1;stroke:none"
           sodipodi:type="arc" />
        <path
           sodipodi:type="arc"
           style="opacity:0.25;fill:url(#linearGradient9909);fill-opacity:1;stroke:none"
           id="path9248"
           sodipodi:cx="885"
           sodipodi:cy="124"
           sodipodi:rx="19"
           sodipodi:ry="19"
           d="m 904,124 c 0,10.49341 -8.50659,19 -19,19 -10.49341,0 -19,-8.50659 -19,-19 0,-10.49341 8.50659,-19 19,-19 10.49341,0 19,8.50659 19,19 z"
           transform="matrix(0.3898039,0,0,0.3898039,-152.99205,-43.476187)" />
        <path
           style="opacity:0.75;fill:url(#linearGradient9911);fill-opacity:1;stroke:none"
           d="m 191.98562,-2.5499892 c -4.09036,0 -7.40626,3.3159032 -7.40626,7.4062751 0,4.0903732 3.3159,7.4062741 7.40626,7.4062741 4.09038,0 7.40629,-3.3159009 7.40629,-7.4062741 0,-4.0903719 -3.31591,-7.4062751 -7.40629,-7.4062751 z m 0,0.718702 c 3.69676,0 6.68759,2.990829 6.68759,6.6875731 0,3.696743 -2.99083,6.6997561 -6.68759,6.6997561 -3.69673,0 -6.69973,-3.0030131 -6.69973,-6.6997561 0,-3.6967441 3.003,-6.6875731 6.69973,-6.6875731 z"
           id="path9250" />
      </g>
    </g>
  </g>
</svg>
